PathFileType	4	(X/Y/Z)	Run_200 01
DataRate	CameraRate	NumFrames	NumMarkers	Units	OrigDataRate	OrigDataStartFrame	OrigNumFrames
120	120	4	42	mm	120	476	128
Frame#	Time	LASI			RASI			LPSI			RPSI			RTH1			RTH2			RTH3			LTH1			LTH2			LTH3			RTB2			RTB3			LTB1			LTB2			LTB3			RCAL			RTOE			RMT5			LCAL			LTOE			LMT5			LACR			RACR			CLAV			C7			RUA1			RUA2			RUA3			RLEL			RMEL			LUA1			LUA2			LUA3			LLEL			LMEL			RFAsuperior			RFAradius			RFAulna			LFAsuperior			LFAradius			LFAulna			RTB1		
		X1	Y1	Z1	X2	Y2	Z2	X3	Y3	Z3	X4	Y4	Z4	X5	Y5	Z5	X6	Y6	Z6	X7	Y7	Z7	X8	Y8	Z8	X9	Y9	Z9	X10	Y10	Z10	X11	Y11	Z11	X12	Y12	Z12	X13	Y13	Z13	X14	Y14	Z14	X15	Y15	Z15	X16	Y16	Z16	X17	Y17	Z17	X18	Y18	Z18	X19	Y19	Z19	X20	Y20	Z20	X21	Y21	Z21	X22	Y22	Z22	X23	Y23	Z23	X24	Y24	Z24	X25	Y25	Z25	X26	Y26	Z26	X27	Y27	Z27	X28	Y28	Z28	X29	Y29	Z29	X30	Y30	Z30	X31	Y31	Z31	X32	Y32	Z32	X33	Y33	Z33	X34	Y34	Z34	X35	Y35	Z35	X36	Y36	Z36	X37	Y37	Z37	X38	Y38	Z38	X39	Y39	Z39	X40	Y40	Z40	X41	Y41	Z41	X42	Y42	Z42	

476	  3.966667	462.207674	1053.954845	-446.053257	452.437499	1049.924005	-211.355333	293.259206	1078.709051	-382.717357	290.425623	1084.497509	-293.596180	366.036744	867.797461	-167.761626	389.512192	735.310284	-186.909070	272.152954	641.485484	-196.337321	462.690147	908.403608	-491.907622	547.619084	815.216276	-472.637853	509.711185	662.108121	-466.631038	164.765740	391.973394	-199.329838	125.062196	282.837189	-268.129493	587.499201	432.018224	-394.258133	546.896901	325.878565	-448.612351	558.953730	243.730176	-375.176240	-37.792288	244.387624	-280.921380	111.414713	 84.915761	-290.230075	 66.302036	 86.059211	-201.584774	450.018470	110.880919	-380.187883	665.391210	133.408644	-364.060006	647.638017	 99.049023	-449.320279	385.949962	1496.812840	-514.817116	443.975454	1490.359421	-144.680865	510.127267	1465.370298	-323.186712	382.864430	1550.894341	-326.829967	440.106666	1384.585510	-76.264023	463.072205	1315.652810	-81.056948	379.893824	1302.578480	-13.342421	418.092239	1220.750818	  3.809312	341.033433	1193.767109	-40.720450	333.258617	1447.259382	-565.564462	257.169369	1404.479076	-543.393833	287.601185	1368.416687	-606.660647	226.921449	1276.742105	-642.369072	184.826286	1245.905215	-565.988230	481.794911	1225.269734	-50.698967	558.014414	1243.018107	-196.990766	558.365820	1176.939203	-184.517544	297.382532	1268.111538	-634.641601	443.801474	1242.989711	-538.886620	433.517680	1184.845792	-566.196260	237.087905	423.551019	-249.416125	
477	  3.975000	462.996142	1052.266891	-445.922407	452.173081	1050.142653	-212.014160	294.130506	1078.945212	-383.555579	291.085101	1085.266037	-294.514374	368.820104	866.550424	-168.264996	394.436744	733.793023	-185.586836	279.300040	638.278749	-195.432703	461.195105	905.652420	-492.673073	544.339505	810.798793	-474.849761	504.156012	658.761987	-467.263451	164.922506	392.992117	-198.855233	120.475694	286.196867	-267.646830	584.652269	429.764756	-393.862868	546.587970	322.701822	-447.974569	560.792096	241.072526	-374.239906	-43.293005	255.753108	-281.235099	 98.300315	 89.229796	-289.691435	 52.530461	 91.534000	-201.553983	455.295870	104.688666	-379.041216	670.138792	134.332276	-363.127528	653.192570	 98.297670	-448.591385	387.495796	1495.373264	-516.548065	444.074013	1489.984368	-146.169484	510.468870	1464.520540	-324.404885	383.653000	1550.115991	-328.575905	439.881692	1385.000793	-76.875041	463.126818	1316.104525	-80.592194	379.337440	1303.749511	-13.487549	416.991602	1221.456474	  3.775265	339.191633	1195.243655	-40.033817	335.274264	1446.179343	-567.911882	259.081021	1402.912980	-546.233901	289.828310	1367.235301	-609.272499	229.609983	1275.513918	-645.826950	187.671379	1243.745331	-569.864914	480.131333	1225.224861	-51.518710	554.014480	1242.225088	-199.266425	554.444074	1176.242999	-186.462267	300.126510	1267.686610	-637.820468	446.651550	1243.147355	-541.951604	436.761989	1185.137187	-569.595363	238.809411	421.523310	-248.494837	
478	  3.983333	463.497877	1050.216039	-446.001861	451.622578	1049.459910	-212.637175	294.567438	1078.016982	-384.310502	291.516045	1084.820504	-295.384127	372.238006	864.174735	-168.783163	400.241192	731.479541	-185.074492	287.826582	633.855885	-194.288479	459.264382	902.640231	-493.871114	541.003624	806.382427	-477.520271	499.704107	655.351744	-467.919246	166.153799	393.800728	-198.461709	116.907601	289.601678	-267.140918	581.720211	427.022284	-393.661769	544.766223	319.517020	-447.580727	560.736193	238.181694	-373.622871	-47.390561	267.718901	-281.853911	 85.616639	 94.109347	-289.163576	 39.222735	 98.160221	-201.530030	457.361481	 99.457614	-377.989467	671.973127	134.068011	-362.549260	655.117974	 96.965792	-448.380489	389.397127	1493.168451	-518.410248	444.241861	1488.854830	-147.608484	510.914067	1462.765862	-325.496138	384.468321	1548.516847	-330.399304	439.382449	1384.572819	-77.513476	462.633768	1315.839927	-80.109939	378.023539	1304.135651	-13.914852	415.186880	1221.431106	  3.694726	337.053656	1195.939440	-39.694498	337.728236	1444.147335	-570.488203	261.431498	1400.406473	-549.301542	292.599724	1365.110061	-612.133044	232.885772	1273.396438	-649.574008	190.992297	1240.677886	-574.139923	477.923623	1224.376415	-52.186915	550.178926	1240.445280	-200.935713	550.390097	1174.582828	-187.930565	303.488011	1266.277056	-641.325209	449.920022	1242.377278	-545.108544	440.499510	1184.521651	-573.134323	241.657983	418.954422	-247.580353	
479	  3.991667	463.666094	1047.921022	-446.323070	450.971755	1047.909665	-212.989504	294.576065	1075.845311	-384.901930	291.602530	1083.055977	-296.077456	375.999401	860.790922	-169.267133	406.836828	728.442363	-185.260145	297.363178	628.463963	-192.966426	456.958979	899.522117	-495.830409	537.581345	801.915984	-480.322041	496.376887	651.811193	-468.563173	168.594719	394.526802	-198.112335	114.485231	293.198141	-266.625097	578.657372	423.744302	-393.729699	541.573953	316.187833	-447.477356	559.061213	234.881267	-373.361774	-49.908139	280.254451	-282.805186	 73.703401	 99.770355	-288.390862	 26.721844	106.213626	-201.255073	456.479313	 95.458847	-376.859280	671.213941	131.298795	-362.503095	653.537957	 94.095371	-448.580649	391.578194	1490.212684	-520.363665	444.512408	1486.994769	-149.012810	511.443731	1460.095586	-326.466128	385.272462	1546.140671	-332.278562	438.579108	1383.325106	-78.185912	461.577443	1314.788161	-79.686755	375.987302	1303.775808	-14.611303	412.685601	1220.692944	  3.567124	334.447639	1195.892163	-39.636041	340.559351	1441.171923	-573.267189	264.190568	1396.935353	-552.618924	295.903473	1362.028316	-615.246620	236.787457	1270.371063	-653.619860	194.782690	1236.697282	-578.784733	475.207179	1222.721523	-52.694920	546.593194	1237.745253	-201.971092	546.217528	1171.923225	-188.948385	307.462216	1263.856348	-645.144601	453.583836	1240.643514	-548.326740	444.748505	1182.968249	-576.774563	245.642040	415.956543	-246.616364	
